<svg width="16" height="17" viewBox="0 0 16 17" fill="none" xmlns="http://www.w3.org/2000/svg">
<path d="M7.66406 0.748657L6.96094 1.41663C6.78516 1.59241 6.78516 1.87366 6.96094 2.01428L12.4102 7.4635H0.421875C0.175781 7.4635 0 7.67444 0 7.88538V8.86975C0 9.11584 0.175781 9.29163 0.421875 9.29163H12.4102L6.96094 14.776C6.78516 14.9166 6.78516 15.1979 6.96094 15.3737L7.66406 16.0416C7.80469 16.2174 8.08594 16.2174 8.26172 16.0416L15.6094 8.69397C15.7852 8.51819 15.7852 8.27209 15.6094 8.09631L8.26172 0.748657C8.08594 0.572876 7.80469 0.572876 7.66406 0.748657Z" fill="black"/>
</svg>
