<svg width="19" height="18" viewBox="0 0 19 18" fill="none" xmlns="http://www.w3.org/2000/svg">
<path d="M9.91699 6.91641C9.49316 6.91656 9.07888 7.03889 8.72655 7.26793C8.37423 7.49698 8.09966 7.82244 7.93758 8.20318C7.77549 8.58393 7.73316 9.00284 7.81595 9.40697C7.89873 9.81109 8.10291 10.1823 8.40266 10.4736C8.70241 10.7649 9.08428 10.9633 9.49999 11.0436C9.91569 11.1239 10.3466 11.0826 10.7381 10.9249C11.1297 10.7672 11.4643 10.5001 11.6998 10.1575C11.9352 9.81487 12.0609 9.41206 12.0609 9C12.0605 8.44739 11.8345 7.91754 11.4325 7.52686C11.0305 7.13618 10.4854 6.91661 9.91699 6.91641ZM14.9277 5.31484C14.8186 5.04603 14.6538 4.80188 14.4436 4.59754C14.2334 4.3932 13.9823 4.23302 13.7058 4.12695C12.8621 3.80312 10.8532 3.87578 9.91699 3.87578C8.98083 3.87578 6.97391 3.80039 6.12775 4.12695C5.85126 4.23302 5.60013 4.3932 5.38995 4.59754C5.17977 4.80188 5.01502 5.04603 4.90592 5.31484C4.57324 6.13516 4.64757 8.09023 4.64757 8.99961C4.64757 9.90898 4.57324 11.8617 4.90753 12.6848C5.01663 12.9536 5.18138 13.1977 5.39156 13.4021C5.60174 13.6064 5.85287 13.7666 6.12936 13.8727C6.97311 14.1965 8.98204 14.1238 9.9186 14.1238C10.8552 14.1238 12.8613 14.1992 13.7074 13.8727C13.9839 13.7666 14.2351 13.6064 14.4452 13.4021C14.6554 13.1977 14.8202 12.9536 14.9293 12.6848C15.2648 11.8645 15.1876 9.90938 15.1876 9C15.1876 8.09062 15.2648 6.13828 14.9293 5.31523L14.9277 5.31484ZM9.91699 12.2031C9.26537 12.2031 8.62839 12.0153 8.08659 11.6633C7.54479 11.3113 7.1225 10.8111 6.87314 10.2258C6.62378 9.64049 6.55853 8.99645 6.68566 8.3751C6.81278 7.75376 7.12656 7.18301 7.58733 6.73505C8.04809 6.28708 8.63514 5.98202 9.27424 5.85842C9.91334 5.73483 10.5758 5.79826 11.1778 6.0407C11.7798 6.28314 12.2944 6.69369 12.6564 7.22044C13.0184 7.74719 13.2116 8.36648 13.2116 9C13.2122 9.42078 13.1273 9.83754 12.9619 10.2264C12.7965 10.6152 12.5539 10.9686 12.2478 11.2661C11.9418 11.5636 11.5784 11.7996 11.1784 11.9603C10.7785 12.1211 10.3498 12.2036 9.91699 12.2031ZM13.3474 6.41016C13.1953 6.41023 13.0466 6.36645 12.9201 6.28434C12.7936 6.20224 12.6949 6.0855 12.6367 5.94889C12.5784 5.81228 12.5631 5.66194 12.5927 5.51688C12.6224 5.37182 12.6956 5.23857 12.8031 5.13397C12.9106 5.02936 13.0477 4.95812 13.1969 4.92924C13.346 4.90036 13.5007 4.91514 13.6412 4.97172C13.7818 5.0283 13.9019 5.12412 13.9864 5.24708C14.0709 5.37004 14.1161 5.51461 14.1161 5.6625C14.1165 5.76071 14.097 5.85803 14.0586 5.94889C14.0203 6.03974 13.9638 6.12234 13.8926 6.19195C13.8213 6.26156 13.7366 6.3168 13.6433 6.35452C13.5501 6.39223 13.4501 6.41167 13.349 6.41172L13.3474 6.41016ZM16.9884 0.25H2.84556C2.33407 0.25 1.84353 0.447544 1.48186 0.799175C1.12018 1.15081 0.916992 1.62772 0.916992 2.125L0.916992 15.875C0.916992 16.3723 1.12018 16.8492 1.48186 17.2008C1.84353 17.5525 2.33407 17.75 2.84556 17.75H16.9884C17.4999 17.75 17.9904 17.5525 18.3521 17.2008C18.7138 16.8492 18.917 16.3723 18.917 15.875V2.125C18.917 1.62772 18.7138 1.15081 18.3521 0.799175C17.9904 0.447544 17.4999 0.25 16.9884 0.25ZM16.3006 11.5781C16.2487 12.5793 16.0137 13.4664 15.2619 14.1953C14.5102 14.9242 13.5986 15.1574 12.57 15.2051C11.5089 15.2633 8.32753 15.2633 7.26641 15.2051C6.23663 15.1547 5.32739 14.9258 4.57445 14.1953C3.8215 13.4648 3.58485 12.5773 3.53583 11.5781C3.47597 10.5461 3.47597 7.45273 3.53583 6.42188C3.58766 5.4207 3.81989 4.53359 4.57445 3.80469C5.329 3.07578 6.24065 2.84531 7.26641 2.79766C8.32753 2.73945 11.5089 2.73945 12.57 2.79766C13.5998 2.84805 14.5118 3.07695 15.2619 3.80742C16.0121 4.53789 16.2515 5.42539 16.3006 6.42656C16.3604 7.45469 16.3604 10.5453 16.3006 11.5781Z" fill="black"/>
</svg>
