<svg width="17" height="17" viewBox="0 0 17 17" fill="none" xmlns="http://www.w3.org/2000/svg">
<path d="M8.83594 16.1526L9.53906 15.4846C9.71484 15.3088 9.71484 15.0276 9.53906 14.887L4.08984 9.43774L16.0781 9.43774C16.3242 9.43774 16.5 9.22681 16.5 9.01587L16.5 8.03149C16.5 7.7854 16.3242 7.60962 16.0781 7.60962L4.08984 7.60962L9.53906 2.12524C9.71485 1.98462 9.71485 1.70337 9.53906 1.52759L8.83594 0.859618C8.69531 0.683837 8.41406 0.683837 8.23828 0.859618L0.890626 8.20727C0.714845 8.38306 0.714845 8.62915 0.890626 8.80493L8.23828 16.1526C8.41406 16.3284 8.69531 16.3284 8.83594 16.1526Z" fill="#D24545"/>
</svg>
