<svg width="16" height="17" viewBox="0 0 16 17" fill="none" xmlns="http://www.w3.org/2000/svg">
<path d="M15.875 15.4897L12.0938 11.7085C12 11.646 11.9062 11.5835 11.8125 11.5835H11.4062C12.375 10.4585 13 8.9585 13 7.3335C13 3.771 10.0625 0.833496 6.5 0.833496C2.90625 0.833496 0 3.771 0 7.3335C0 10.9272 2.90625 13.8335 6.5 13.8335C8.125 13.8335 9.59375 13.2397 10.75 12.271V12.6772C10.75 12.771 10.7812 12.8647 10.8438 12.9585L14.625 16.7397C14.7812 16.896 15.0312 16.896 15.1562 16.7397L15.875 16.021C16.0312 15.896 16.0312 15.646 15.875 15.4897ZM6.5 12.3335C3.71875 12.3335 1.5 10.1147 1.5 7.3335C1.5 4.5835 3.71875 2.3335 6.5 2.3335C9.25 2.3335 11.5 4.5835 11.5 7.3335C11.5 10.1147 9.25 12.3335 6.5 12.3335Z" fill="black"/>
</svg>
