<svg width="20" height="19" viewBox="0 0 20 19" fill="none" xmlns="http://www.w3.org/2000/svg">
<path d="M18.0625 6.39075L12.9297 5.65247L10.6094 0.976685C10.2227 0.168091 9.02734 0.132935 8.60547 0.976685L6.32031 5.65247L1.15234 6.39075C0.238281 6.53137 -0.113281 7.65637 0.554688 8.32434L4.24609 11.9454L3.36719 17.0431C3.22656 17.9572 4.21094 18.6603 5.01953 18.2384L9.625 15.8126L14.1953 18.2384C15.0039 18.6603 15.9883 17.9572 15.8477 17.0431L14.9688 11.9454L18.6602 8.32434C19.3281 7.65637 18.9766 6.53137 18.0625 6.39075ZM13.1406 11.3478L13.9844 16.1993L9.625 13.9142L5.23047 16.1993L6.07422 11.3478L2.52344 7.90247L7.41016 7.19934L9.625 2.76965L11.8047 7.19934L16.6914 7.90247L13.1406 11.3478Z" fill="#D24545"/>
</svg>
