<svg width="17" height="14" viewBox="0 0 17 14" fill="none" xmlns="http://www.w3.org/2000/svg">
<path d="M14.8608 3.45142C15.4858 2.98267 16.0483 2.42017 16.4858 1.76392C15.9233 2.01392 15.2671 2.20142 14.6108 2.26392C15.2983 1.85767 15.7983 1.23267 16.0483 0.451416C15.4233 0.826416 14.7046 1.10767 13.9858 1.26392C13.3608 0.607666 12.5171 0.232666 11.5796 0.232666C9.76709 0.232666 8.29834 1.70142 8.29834 3.51392C8.29834 3.76392 8.32959 4.01392 8.39209 4.26392C5.67334 4.10767 3.23584 2.79517 1.61084 0.826416C1.32959 1.29517 1.17334 1.85767 1.17334 2.48267C1.17334 3.60767 1.73584 4.60767 2.64209 5.20142C2.11084 5.17017 1.57959 5.04517 1.14209 4.79517V4.82642C1.14209 6.42017 2.26709 7.73267 3.76709 8.04517C3.51709 8.10767 3.20459 8.17017 2.92334 8.17017C2.70459 8.17017 2.51709 8.13892 2.29834 8.10767C2.70459 9.42017 3.92334 10.3577 5.36084 10.3889C4.23584 11.2639 2.82959 11.7952 1.29834 11.7952C1.01709 11.7952 0.76709 11.7639 0.51709 11.7327C1.95459 12.6702 3.67334 13.2014 5.54834 13.2014C11.5796 13.2014 14.8608 8.23267 14.8608 3.88892C14.8608 3.73267 14.8608 3.60767 14.8608 3.45142Z" fill="black"/>
</svg>
