<svg width="30" height="22" viewBox="0 0 30 22" fill="none" xmlns="http://www.w3.org/2000/svg">
<path d="M25.1719 9.97412C25.3594 9.4585 25.5 8.94287 25.5 8.3335C25.5 5.84912 23.4844 3.8335 21 3.8335C20.0625 3.8335 19.1719 4.11475 18.4688 4.63037C17.2031 2.38037 14.7656 0.833496 12 0.833496C7.82812 0.833496 4.5 4.2085 4.5 8.3335C4.5 8.47412 4.5 8.61475 4.5 8.75537C1.875 9.646 0 12.1772 0 15.0835C0 18.8335 3 21.8335 6.75 21.8335H24C27.2812 21.8335 30 19.1616 30 15.8335C30 12.9741 27.9375 10.5366 25.1719 9.97412Z" fill="#D14343"/>
</svg>
